<svg id="Layer_2" data-name="Layer 2" xmlns="http://www.w3.org/2000/svg" viewBox="0 0 254 151"><defs><style>.cls-1{fill:#fff;}</style></defs><path class="cls-1" d="M17,219.5V68.5H271v151Zm208-36.82c3.16,2.84,5.94,5.7,9.08,8.09,4.09,3.11,8.78,3.17,13.13.73s7-6.77,5.53-11.65c-1.09-3.5-3.79-6.81-6.53-9.43-3.28-3.15-4.67-5.22-2.64-10.36,3.19-8.12,5.82-17.05,5.89-25.66.12-14.43-5.23-27.4-15.16-38.56-18.23-20.51-51.2-25-74.29-10.16a57.7,57.7,0,0,0-9.63,90c11.1,11.1,24.66,16.65,40.29,17.28C203.05,193.48,214.22,189.66,225,182.68ZM28.48,75.57c-.28,2-.43,2.65-.43,3.27q0,51.39,0,102.76c0,6.36,4.71,10.88,11,11.07,6.95.21,11.75-3.6,12.07-10.28.42-8.75.52-17.53.4-26.29,0-3.56.81-5.24,4.67-5,3.48.23,7,.08,10.49,0,19.4-.53,33.32-13.34,35.75-34.8,1.59-14-6.48-33.29-26-37.38C60.92,75.67,44.55,76.54,28.48,75.57Zm100.46,72.22h.39c0-8.59.08-17.19,0-25.78,0-3.1-.07-6.36-1-9.25a11.21,11.21,0,0,0-12.68-7.34,11.6,11.6,0,0,0-9.79,11.3c0,19.85-.55,39.7-.53,59.55a19.41,19.41,0,0,0,2.83,10.29,12.46,12.46,0,0,0,8,5c7.74.77,12.7-4.42,12.81-12.54C129,168.63,128.94,158.21,128.94,147.79Zm-11.55-47.54c7,0,11.86-4.83,11.82-11.7,0-6.53-5.65-12.13-12-12a11.67,11.67,0,0,0-11.45,11.86C105.79,95.53,110.44,100.26,117.39,100.25Z" transform="translate(-17 -68.5)"/><path d="M225,182.68c-10.77,7-21.94,10.8-34.33,10.3-15.63-.63-29.19-6.18-40.29-17.28a57.7,57.7,0,0,1,9.63-90c23.09-14.86,56.06-10.35,74.29,10.16C244.22,107,249.57,120,249.45,134.4c-.07,8.61-2.7,17.54-5.89,25.66-2,5.14-.64,7.21,2.64,10.36,2.74,2.62,5.44,5.93,6.53,9.43,1.51,4.88-1.09,9.17-5.53,11.65s-9,2.38-13.13-.73C230.93,188.38,228.15,185.52,225,182.68ZM191.22,98.34c-19.28-.06-35.56,16.44-36.44,35.36-.84,17.86,13.05,37.84,36.1,37.93,20,.08,36.41-14.41,36.67-36.33C227.8,114.27,211.29,99,191.22,98.34Z" transform="translate(-17 -68.5)"/><path d="M28.48,75.57c16.07,1,32.44.1,47.94,3.35,19.51,4.09,27.58,23.37,26,37.38-2.43,21.46-16.35,34.27-35.75,34.8-3.5.09-7,.24-10.49,0-3.86-.25-4.72,1.43-4.67,5,.12,8.76,0,17.54-.4,26.29C50.78,189.07,46,192.88,39,192.67c-6.26-.19-11-4.71-11-11.07q-.11-51.37,0-102.76C28.05,78.22,28.2,77.59,28.48,75.57ZM50.12,99.32c0,9.33-.12,17.88.15,26.43,0,1.08,2,2.88,3.26,3A73.87,73.87,0,0,0,65,129c8.81-.36,15.36-6.39,15.62-14.17.25-7.24-5.3-14.81-12-15.38C62.71,98.92,56.73,99.32,50.12,99.32Z" transform="translate(-17 -68.5)"/><path d="M128.94,147.79c0,10.42.1,20.84,0,31.26-.11,8.12-5.07,13.31-12.81,12.54a12.46,12.46,0,0,1-8-5,19.41,19.41,0,0,1-2.83-10.29c0-19.85.52-39.7.53-59.55a11.6,11.6,0,0,1,9.79-11.3,11.21,11.21,0,0,1,12.68,7.34c.95,2.89,1,6.15,1,9.25.12,8.59,0,17.19,0,25.78Z" transform="translate(-17 -68.5)"/><path d="M117.39,100.25c-7,0-11.6-4.72-11.62-11.81a11.67,11.67,0,0,1,11.45-11.86c6.34-.16,12,5.44,12,12C129.25,95.42,124.38,100.24,117.39,100.25Z" transform="translate(-17 -68.5)"/><path class="cls-1" d="M191.22,98.34c20.07.68,36.58,15.93,36.33,37-.26,21.92-16.69,36.41-36.67,36.33-23-.09-36.94-20.07-36.1-37.93C155.66,114.78,171.94,98.28,191.22,98.34ZM211,135.41a20.33,20.33,0,0,0-19.3-20.12c-10.27-.34-20.67,9.07-20.45,19.58s7.58,19.18,19.49,19.87C201.65,155.37,210.84,146.25,211,135.41Z" transform="translate(-17 -68.5)"/><path class="cls-1" d="M50.12,99.32c6.61,0,12.59-.4,18.49.11,6.67.57,12.22,8.14,12,15.38C80.32,122.59,73.77,128.62,65,129a73.87,73.87,0,0,1-11.43-.21c-1.24-.14-3.23-1.94-3.26-3C50,117.2,50.12,108.65,50.12,99.32Z" transform="translate(-17 -68.5)"/><path d="M211,135.41c-.13,10.84-9.32,20-20.26,19.33-11.91-.69-19.28-9.26-19.49-19.87S181.4,115,191.67,115.29A20.33,20.33,0,0,1,211,135.41Z" transform="translate(-17 -68.5)"/></svg>