<?xml version="1.0" encoding="utf-8"?>
<!-- Generator: Adobe Illustrator 24.2.3, SVG Export Plug-In . SVG Version: 6.00 Build 0)  -->
<svg version="1.1" id="P_1_" xmlns="http://www.w3.org/2000/svg" xmlns:xlink="http://www.w3.org/1999/xlink" x="0px" y="0px"
	 viewBox="0 0 805 464" enable-background="new 0 0 805 464" xml:space="preserve">
<g>
	<g>
		<path d="M791.1,321.7L757,287.6c13.5-26.8,21.1-57,21.1-89C778.1,89,688.9-0.2,579.2-0.2S380.3,89,380.3,198.7
			s89.2,198.9,198.9,198.9c44.3,0,85.3-14.6,118.4-39.2l28.4,28.4c17.9,17.9,47.2,17.9,65.1,0h0C809,368.9,809,339.6,791.1,321.7z
			 M579.2,324.8c-69.7,0-126.1-56.5-126.1-126.1S509.5,72.5,579.2,72.5S705.3,129,705.3,198.7S648.9,324.8,579.2,324.8z"/>
		<circle cx="579.2" cy="198.7" r="72.7"/>
	</g>
	<path d="M325.4,397.5L325.4,397.5c-25.3,0-46-20.7-46-46V136.3c0-25.3,20.7-46,46-46h0c25.3,0,46,20.7,46,46v215.2
		C371.4,376.8,350.7,397.5,325.4,397.5z"/>
	<circle cx="326.2" cy="40.6" r="40.8"/>
	<path d="M133.8-0.2h-17.1h-11.1H91.5H73.7H-0.5v136.5V307v44.5c0,25.3,20.7,46,46,46h0c25.3,0,46-20.7,46-46V307v-36.4
		c4.6,0.5,9.3,0.7,14.1,0.7h28.2c74.7,0,135.8-61.1,135.8-135.8v0C269.6,60.9,208.5-0.2,133.8-0.2z M198,135.6
		c0,34.7-28.4,63.1-63.1,63.1h-4.8h-8.3h-6.5h-11.9H91.5v-62.3V72.5h13.4h10.4h6.5h11.3h1.8C169.6,72.5,198,100.9,198,135.6
		L198,135.6z"/>
</g>
<g>
	<path d="M21.7,439.9c2.4,0,3.5,1.3,3.5,3.9c0,2.5-1.2,3.8-3.5,3.8h-9.9v8h12.7c2.4,0,3.5,1.3,3.5,3.9c0,2.5-1.2,3.8-3.5,3.8H7.8
		c-3.1,0-4.5-1.4-4.5-4.5v-29.4c0-3.1,1.4-4.5,4.5-4.5h16.4c2.4,0,3.5,1.3,3.5,3.9c0,2.5-1.2,3.8-3.5,3.8H11.8v7.1H21.7z"/>
	<path d="M40.9,439.8v0.2c1.6-2.5,4.2-3.8,7.8-3.8c3.4,0,6,1.1,7.7,3.7c1.1,1.7,1.6,4,1.6,6.8v13.5c0,2.4-1.5,3.5-4.4,3.5
		s-4.4-1.2-4.4-3.5v-12c0-1.2-0.2-2.1-0.6-2.8c-0.6-1-1.7-1.5-3.2-1.5c-1.6,0-2.8,0.5-3.9,1.6v14.6c0,2.4-1.5,3.5-4.4,3.5
		c-3,0-4.4-1.2-4.4-3.5v-20.4c0-2.4,1.4-3.5,4.2-3.5C39.8,436.2,40.9,437.7,40.9,439.8z"/>
	<path d="M83.9,460c0,0.9-0.3,1.8-1.5,2.5c-1.3,0.8-3.7,1.3-6,1.3c-4.2,0-7.1-1.7-8.6-4.2c-1.2-2.2-1.3-4.8-1.3-7.5v-8h-1.7
		c-2.4,0-3.5-1.2-3.5-3.7c0-2.4,1.2-3.7,3.5-3.7h1.7v-4.8c0-2.4,1.5-3.5,4.4-3.5s4.4,1.2,4.4,3.5v4.8h4.4c2.4,0,3.5,1.2,3.5,3.7
		c0,2.4-1.2,3.7-3.5,3.7h-4.4v7.9c0,0.9,0,2.3,0.5,3.2c0.4,0.8,1.1,1.1,1.9,1.1c0.6,0,1.2-0.1,1.7-0.2c0.4-0.1,0.8-0.2,1.4-0.2
		C83.2,456,83.9,458.6,83.9,460z"/>
	<path d="M111.6,458.9c0,1.2-0.7,2.1-2.2,3c-2,1.2-4.9,2-8.6,2c-9.1,0-14.2-5.1-14.2-13.8c0-8.6,5-14.1,13.2-14.1
		c8.4,0,12.6,5.7,12.6,11.6c0,4.4-2.2,5-4.9,5H95c0.7,2.8,2.5,4.3,5.8,4.3c1.9,0,3.4-0.5,4.8-1.2c1-0.5,1.7-0.8,2.4-0.8
		C110,454.9,111.6,457,111.6,458.9z M94.9,447h9.1c0-2.4-1.3-4.5-4.4-4.5C96.9,442.5,95.4,444.1,94.9,447z"/>
	<path d="M126.1,460.2c0,2.4-1.5,3.5-4.4,3.5s-4.4-1.2-4.4-3.5v-20.3c0-2.1,0.8-3.7,4.4-3.7c3.5,0,4,1.5,4,2.5v1.6
		c1.2-2.5,3.3-4.2,5.7-4.2c1.9,0,3.2,1.1,3.2,4c0,3-1.4,3.9-3.7,4c-1.2,0.1-3.4-0.1-4.8,2V460.2z"/>
	<path d="M158.5,460c0,0.9-0.3,1.8-1.5,2.5c-1.3,0.8-3.7,1.3-6,1.3c-4.2,0-7.1-1.7-8.6-4.2c-1.2-2.2-1.3-4.8-1.3-7.5v-8h-1.7
		c-2.4,0-3.5-1.2-3.5-3.7c0-2.4,1.2-3.7,3.5-3.7h1.7v-4.8c0-2.4,1.5-3.5,4.4-3.5s4.4,1.2,4.4,3.5v4.8h4.4c2.4,0,3.5,1.2,3.5,3.7
		c0,2.4-1.2,3.7-3.5,3.7H150v7.9c0,0.9,0,2.3,0.5,3.2c0.4,0.8,1.1,1.1,1.9,1.1c0.6,0,1.2-0.1,1.7-0.2c0.4-0.1,0.8-0.2,1.4-0.2
		C157.8,456,158.5,458.6,158.5,460z"/>
	<path d="M173.5,443.2c-1.5,0-2.9,0.4-5,1.2c-1,0.4-1.8,0.7-2.5,0.7c-2,0-3.3-2.4-3.3-4.1c0-1.2,0.7-2.1,2.2-2.9
		c2.5-1.4,5.8-2,9.3-2c4.5,0,7.7,1.1,9.6,3.1c1.3,1.5,1.9,3.7,1.9,6.6v14.3c0,2.5-1.4,3.5-4.4,3.5c-2.7,0-3.7-0.8-3.7-2.8v-0.1
		c-1.6,1.9-4,2.8-7.1,2.8c-5.5,0-9-3-9-7.8c0-5.3,4.1-8.3,15.6-9.3v-0.3C177.1,444.4,176.3,443.2,173.5,443.2z M170.4,455.1
		c0,1.2,0.8,2.1,2.7,2.1c1.5,0,2.9-0.5,4.1-1.5v-4.2C172.6,452.1,170.4,453.1,170.4,455.1z"/>
	<path d="M196.3,433.7c-3,0-5.1-2-5.1-5s2.1-5,5.1-5s5.1,2,5.1,5S199.3,433.7,196.3,433.7z M200.7,460.2c0,2.4-1.5,3.5-4.4,3.5
		s-4.4-1.2-4.4-3.5v-20.4c0-2.4,1.5-3.5,4.4-3.5s4.4,1.2,4.4,3.5V460.2z"/>
	<path d="M215.6,439.8v0.2c1.6-2.5,4.2-3.8,7.8-3.8c3.4,0,6,1.1,7.7,3.7c1.1,1.7,1.6,4,1.6,6.8v13.5c0,2.4-1.5,3.5-4.4,3.5
		s-4.4-1.2-4.4-3.5v-12c0-1.2-0.2-2.1-0.6-2.8c-0.6-1-1.7-1.5-3.2-1.5c-1.6,0-2.8,0.5-3.9,1.6v14.6c0,2.4-1.5,3.5-4.4,3.5
		s-4.4-1.2-4.4-3.5v-20.4c0-2.4,1.4-3.5,4.2-3.5C214.5,436.2,215.6,437.7,215.6,439.8z"/>
	<path d="M247.2,439.8v0.2c1.4-2.4,4.2-3.8,7.8-3.8c3.8,0,6.5,1.6,7.9,4.7c1.5-2.9,4.6-4.7,8.5-4.7c3.3,0,5.8,1.2,7.4,3.7
		c1.1,1.7,1.6,4,1.6,6.8v13.5c0,2.4-1.5,3.5-4.4,3.5s-4.4-1.2-4.4-3.5v-12c0-1.2-0.2-2.2-0.6-2.9c-0.6-0.9-1.7-1.4-3.1-1.4
		c-1.5,0-2.9,0.6-3.8,1.7v14.6c0,2.4-1.5,3.5-4.4,3.5c-3,0-4.4-1.2-4.4-3.5v-12c0-1.2-0.2-2.2-0.6-2.9c-0.6-0.9-1.7-1.4-3.1-1.4
		c-1.5,0-2.9,0.6-3.8,1.7v14.6c0,2.4-1.5,3.5-4.4,3.5c-3,0-4.4-1.2-4.4-3.5v-20.4c0-2.4,1.4-3.5,4.2-3.5
		C246.1,436.2,247.3,437.7,247.2,439.8z"/>
	<path d="M310.1,458.9c0,1.2-0.7,2.1-2.2,3c-2,1.2-4.9,2-8.6,2c-9.1,0-14.2-5.1-14.2-13.8c0-8.6,5-14.1,13.2-14.1
		c8.4,0,12.6,5.7,12.6,11.6c0,4.4-2.2,5-4.9,5h-12.3c0.7,2.8,2.5,4.3,5.8,4.3c1.9,0,3.4-0.5,4.8-1.2c1-0.5,1.7-0.8,2.4-0.8
		C308.5,454.9,310.1,457,310.1,458.9z M293.4,447h9.1c0-2.4-1.3-4.5-4.4-4.5C295.5,442.5,293.9,444.1,293.4,447z"/>
	<path d="M324.2,439.8v0.2c1.6-2.5,4.2-3.8,7.8-3.8c3.4,0,6,1.1,7.7,3.7c1.1,1.7,1.6,4,1.6,6.8v13.5c0,2.4-1.5,3.5-4.4,3.5
		s-4.4-1.2-4.4-3.5v-12c0-1.2-0.2-2.1-0.6-2.8c-0.6-1-1.7-1.5-3.2-1.5c-1.6,0-2.8,0.5-3.9,1.6v14.6c0,2.4-1.5,3.5-4.4,3.5
		s-4.4-1.2-4.4-3.5v-20.4c0-2.4,1.4-3.5,4.2-3.5C323.1,436.2,324.3,437.7,324.2,439.8z"/>
	<path d="M367.2,460c0,0.9-0.3,1.8-1.5,2.5c-1.3,0.8-3.7,1.3-6,1.3c-4.2,0-7.1-1.7-8.6-4.2c-1.2-2.2-1.3-4.8-1.3-7.5v-8h-1.7
		c-2.4,0-3.5-1.2-3.5-3.7c0-2.4,1.2-3.7,3.5-3.7h1.7v-4.8c0-2.4,1.5-3.5,4.4-3.5s4.4,1.2,4.4,3.5v4.8h4.4c2.4,0,3.5,1.2,3.5,3.7
		c0,2.4-1.2,3.7-3.5,3.7h-4.4v7.9c0,0.9,0,2.3,0.5,3.2c0.4,0.8,1.1,1.1,1.9,1.1c0.6,0,1.2-0.1,1.7-0.2c0.4-0.1,0.8-0.2,1.4-0.2
		C366.6,456,367.2,458.6,367.2,460z"/>
	<path d="M404.1,428.2c0,1.5-0.8,4.1-3.1,4.1c-1,0-2.4-0.5-3.7-0.5c-1.7,0-2.4,0.8-2.8,1.5c-0.4,0.8-0.4,1.9-0.4,2.8v0.5h3.3
		c2.4,0,3.5,1.2,3.5,3.7c0,2.4-1.2,3.7-3.5,3.7h-3.3v16c0,2.4-1.5,3.5-4.4,3.5c-3,0-4.4-1.2-4.4-3.5v-16h-1.8
		c-2.4,0-3.5-1.2-3.5-3.7c0-2.4,1.2-3.7,3.5-3.7h1.8v-0.5c0-1.4,0-4.7,1.9-7.4s5.4-4.4,9.6-4.4c1.9,0,4,0.4,5.4,1
		C403.7,426.1,404.1,427.1,404.1,428.2z"/>
	<path d="M417.2,435.9c8.6,0,13.9,5.5,13.9,13.9c0,8.6-5.5,14.2-14.1,14.2s-13.9-5.5-13.9-13.9C403.1,441.5,408.6,435.9,417.2,435.9
		z M417.1,456.9c3,0,4.8-2.6,4.8-6.8c0-4.4-1.9-7-5-7c-3,0-4.8,2.6-4.8,6.8C412.2,454.3,414.1,456.9,417.1,456.9z"/>
	<path d="M444.9,460.2c0,2.4-1.5,3.5-4.4,3.5s-4.4-1.2-4.4-3.5v-20.4c0-2.4,1.4-3.5,4.2-3.5c3.1,0,4.2,1.5,4.1,3.5v0.6
		c1.1-2.4,3.4-4.2,6.4-4.2c2.4,0,3.5,1.2,3.5,4c0,3.1-1.4,4-3.9,4.1c-3.1,0.1-4.5,0.6-5.5,2V460.2z"/>
	<path d="M488.8,460c0,0.9-0.3,1.8-1.5,2.5c-1.3,0.8-3.7,1.3-6,1.3c-4.2,0-7.1-1.7-8.6-4.2c-1.2-2.2-1.3-4.8-1.3-7.5v-8h-1.7
		c-2.4,0-3.5-1.2-3.5-3.7c0-2.4,1.2-3.7,3.5-3.7h1.7v-4.8c0-2.4,1.5-3.5,4.4-3.5s4.4,1.2,4.4,3.5v4.8h4.4c2.4,0,3.5,1.2,3.5,3.7
		c0,2.4-1.2,3.7-3.5,3.7h-4.4v7.9c0,0.9,0,2.3,0.5,3.2c0.4,0.8,1.1,1.1,1.9,1.1c0.6,0,1.2-0.1,1.7-0.2c0.4-0.1,0.8-0.2,1.4-0.2
		C488.1,456,488.8,458.6,488.8,460z"/>
	<path d="M518.7,460.2c0,2.4-1.5,3.5-4.4,3.5s-4.4-1.2-4.4-3.5v-12c0-1.2-0.2-2.1-0.6-2.8c-0.6-1-1.7-1.5-3.2-1.5
		c-1.6,0-2.8,0.5-3.9,1.6v14.6c0,2.4-1.5,3.5-4.4,3.5s-4.4-1.2-4.4-3.5V427c0-2.4,1.5-3.5,4.4-3.5s4.4,1.2,4.4,3.5v12.4
		c1.6-2.1,4.1-3.2,7.3-3.2c3.4,0,6,1.1,7.7,3.7c1.1,1.7,1.6,4,1.6,6.8V460.2z"/>
	<path d="M548.4,458.9c0,1.2-0.7,2.1-2.2,3c-2,1.2-4.9,2-8.6,2c-9.1,0-14.2-5.1-14.2-13.8c0-8.6,5-14.1,13.2-14.1
		c8.4,0,12.6,5.7,12.6,11.6c0,4.4-2.2,5-4.9,5h-12.3c0.7,2.8,2.5,4.3,5.8,4.3c1.9,0,3.4-0.5,4.8-1.2c1-0.5,1.7-0.8,2.4-0.8
		C546.8,454.9,548.4,457,548.4,458.9z M531.7,447h9.1c0-2.4-1.3-4.5-4.4-4.5C533.8,442.5,532.2,444.1,531.7,447z"/>
	<path d="M573.9,460.2c0,2.4-1.5,3.5-4.4,3.5s-4.4-1.2-4.4-3.5v-20.4c0-2.4,1.4-3.5,4.2-3.5c3.1,0,4.2,1.5,4.1,3.5v0.6
		c1.1-2.4,3.4-4.2,6.4-4.2c2.4,0,3.5,1.2,3.5,4c0,3.1-1.4,4-3.9,4.1c-3.1,0.1-4.5,0.6-5.5,2V460.2z"/>
	<path d="M609.4,458.9c0,1.2-0.7,2.1-2.2,3c-2,1.2-4.9,2-8.6,2c-9.1,0-14.2-5.1-14.2-13.8c0-8.6,5-14.1,13.2-14.1
		c8.4,0,12.6,5.7,12.6,11.6c0,4.4-2.2,5-4.9,5h-12.3c0.7,2.8,2.5,4.3,5.8,4.3c1.9,0,3.4-0.5,4.8-1.2c1-0.5,1.7-0.8,2.4-0.8
		C607.8,454.9,609.4,457,609.4,458.9z M592.7,447h9.1c0-2.4-1.3-4.5-4.4-4.5C594.8,442.5,593.2,444.1,592.7,447z"/>
	<path d="M614,444.5c0-4.8,3.7-8.4,11-8.4c3.1,0,6.1,0.6,8.3,1.9c1.4,0.8,2.2,1.7,2.2,3c0,1.7-1.2,4.1-3.4,4.1
		c-0.6,0-1.1-0.2-2.5-0.8c-2.2-0.9-3.8-1.3-5.1-1.3c-1.3,0-2.1,0.4-2.1,1.2c0,3.4,13.7,1.9,13.7,11.3c0,5-4,8.3-11.3,8.3
		c-3.5,0-6.3-0.8-8.7-2.2c-1.5-0.9-2.4-1.8-2.4-3.2c0-1.5,1.1-4.1,3.5-4.1c0.8,0,1.7,0.4,2.5,0.8c1.8,0.9,3.4,1.8,5.4,1.8
		c1.5,0,2.5-0.4,2.5-1.4C627.7,452,614,453.6,614,444.5z"/>
	<path d="M660.9,460c0,0.9-0.3,1.8-1.5,2.5c-1.3,0.8-3.7,1.3-6,1.3c-4.2,0-7.1-1.7-8.6-4.2c-1.2-2.2-1.3-4.8-1.3-7.5v-8h-1.7
		c-2.4,0-3.5-1.2-3.5-3.7c0-2.4,1.2-3.7,3.5-3.7h1.7v-4.8c0-2.4,1.5-3.5,4.4-3.5s4.4,1.2,4.4,3.5v4.8h4.4c2.4,0,3.5,1.2,3.5,3.7
		c0,2.4-1.2,3.7-3.5,3.7h-4.4v7.9c0,0.9,0,2.3,0.5,3.2c0.4,0.8,1.1,1.1,1.9,1.1c0.6,0,1.2-0.1,1.7-0.2c0.4-0.1,0.8-0.2,1.4-0.2
		C660.3,456,660.9,458.6,660.9,460z"/>
	<path d="M688.9,435.9c8.6,0,13.9,5.5,13.9,13.9c0,8.6-5.5,14.2-14.1,14.2s-13.9-5.5-13.9-13.9C674.8,441.5,680.4,435.9,688.9,435.9
		z M688.9,456.9c3,0,4.8-2.6,4.8-6.8c0-4.4-1.9-7-5-7c-3,0-4.8,2.6-4.8,6.8C683.9,454.3,685.9,456.9,688.9,456.9z"/>
	<path d="M728.9,428.2c0,1.5-0.8,4.1-3.1,4.1c-1,0-2.4-0.5-3.7-0.5c-1.7,0-2.4,0.8-2.8,1.5c-0.4,0.8-0.4,1.9-0.4,2.8v0.5h3.3
		c2.4,0,3.5,1.2,3.5,3.7c0,2.4-1.2,3.7-3.5,3.7H719v16c0,2.4-1.5,3.5-4.4,3.5s-4.4-1.2-4.4-3.5v-16h-1.8c-2.4,0-3.5-1.2-3.5-3.7
		c0-2.4,1.2-3.7,3.5-3.7h1.8v-0.5c0-1.4,0-4.7,1.9-7.4c1.9-2.7,5.4-4.4,9.6-4.4c1.9,0,4,0.4,5.4,1
		C728.5,426.1,728.9,427.1,728.9,428.2z"/>
	<path d="M757,460.2v-0.2c-1.4,2.4-4.2,3.8-7.8,3.8c-3.2,0-5.8-1.2-7.4-3.7c-1.1-1.7-1.6-4-1.6-6.8v-13.5c0-2.4,1.5-3.5,4.4-3.5
		s4.4,1.2,4.4,3.5v12c0,1.2,0.2,2.2,0.6,2.9c0.6,0.9,1.7,1.4,3.1,1.4c1.5,0,2.9-0.6,3.8-1.7v-14.6c0-2.4,1.5-3.5,4.4-3.5
		s4.4,1.2,4.4,3.5v20.4c0,2.4-1.4,3.5-4.2,3.5C758.1,463.7,757,462.2,757,460.2z"/>
	<path d="M770.8,444.5c0-4.8,3.7-8.4,11-8.4c3.1,0,6.1,0.6,8.3,1.9c1.4,0.8,2.2,1.7,2.2,3c0,1.7-1.2,4.1-3.4,4.1
		c-0.6,0-1.1-0.2-2.5-0.8c-2.2-0.9-3.8-1.3-5.1-1.3c-1.3,0-2.1,0.4-2.1,1.2c0,3.4,13.7,1.9,13.7,11.3c0,5-4,8.3-11.3,8.3
		c-3.5,0-6.3-0.8-8.7-2.2c-1.5-0.9-2.4-1.8-2.4-3.2c0-1.5,1.1-4.1,3.5-4.1c0.8,0,1.7,0.4,2.5,0.8c1.8,0.9,3.4,1.8,5.4,1.8
		c1.5,0,2.5-0.4,2.5-1.4C784.5,452,770.8,453.6,770.8,444.5z"/>
</g>
</svg>
