<svg xmlns="http://www.w3.org/2000/svg" viewBox="0 0 115.55 84.7">
        <style>
                fill: #0071BC;
        </style>
    <title>Asset 1</title>
    <g id="Layer_2" data-name="Layer 2">
        <g id="Layer_1-2" data-name="Layer 1">
            <path d="M46.74,23.7a134.21,134.21,0,0,0-6.52,12.1C35.73,27.89,31.47,23.35,25,23.35H0v-12H25C34.91,11.35,41.58,16.62,46.74,23.7Z"/>
            <path d="M85.5,84.7V73.35H75c-9.6,0-16.07-5.28-21.09-12.32A125.17,125.17,0,0,0,60.5,49C64.9,56.82,69,61.35,75,61.35H85.5V50l30.05,17.35Z"/>
            <path d="M85.5,34.7V23.35H75c-8,0-12.57,8-19.06,21.27C49.35,58.09,41.87,73.35,25,73.35H0v-12H25c8.75,0,13.46-8.31,20.17-22,6.42-13.12,13.71-28,29.83-28H85.5V0l30.05,17.35Z"/>
        </g>
    </g>
</svg>